<svg width="14" height="12" viewBox="0 0 14 12" fill="none" xmlns="http://www.w3.org/2000/svg">
<path d="M12.667 2.26844H7.77729L6.14739 0.402649H2.07264C1.74844 0.402649 1.43751 0.550079 1.20826 0.812507C0.97901 1.07493 0.85022 1.43086 0.85022 1.80199L0.85022 10.198C0.85022 10.5692 0.97901 10.9251 1.20826 11.1875C1.43751 11.45 1.74844 11.5974 2.07264 11.5974H12.667C12.9912 11.5974 13.3021 11.45 13.5314 11.1875C13.7606 10.9251 13.8894 10.5692 13.8894 10.198V3.66778C13.8894 3.29665 13.7606 2.94072 13.5314 2.6783C13.3021 2.41587 12.9912 2.26844 12.667 2.26844ZM10.0057 7.16613C10.0057 7.28984 9.96273 7.40849 9.88632 7.49596C9.8099 7.58344 9.70626 7.63258 9.59819 7.63258H7.96829V9.49837C7.96829 9.62208 7.92536 9.74072 7.84894 9.8282C7.77253 9.91567 7.66888 9.96482 7.56082 9.96482H7.15334C7.04527 9.96482 6.94163 9.91567 6.86521 9.8282C6.7888 9.74072 6.74587 9.62208 6.74587 9.49837V7.63258H5.11597C5.0079 7.63258 4.90426 7.58344 4.82784 7.49596C4.75142 7.40849 4.70849 7.28984 4.70849 7.16613V6.69969C4.70849 6.57598 4.75142 6.45733 4.82784 6.36986C4.90426 6.28238 5.0079 6.23324 5.11597 6.23324H6.74587V4.36745C6.74587 4.24374 6.7888 4.1251 6.86521 4.03762C6.94163 3.95015 7.04527 3.901 7.15334 3.901H7.56082C7.66888 3.901 7.77253 3.95015 7.84894 4.03762C7.92536 4.1251 7.96829 4.24374 7.96829 4.36745V6.23324H9.59819C9.70626 6.23324 9.8099 6.28238 9.88632 6.36986C9.96273 6.45733 10.0057 6.57598 10.0057 6.69969V7.16613Z"/>
</svg>
