<svg width="99" height="120" viewBox="0 0 99 120" xmlns="http://www.w3.org/2000/svg">
    <path d="M84.441 55.2149C88.5097 50.2448 91.0194 44.1834 91.655 37.7918C93.6268 17.4056 77.6305 0.174866 57.7038 0.174866H4.42192C3.28814 0.174866 2.20079 0.625261 1.39908 1.42697C0.597368 2.22868 0.146973 3.31603 0.146973 4.44982V17.2747C0.146973 18.4085 0.597368 19.4958 1.39908 20.2975C2.20079 21.0992 3.28814 21.5496 4.42192 21.5496H12.9371V98.4987H4.42192C3.28814 98.4987 2.20079 98.9491 1.39908 99.7509C0.597368 100.553 0.146973 101.64 0.146973 102.774V115.599C0.146973 116.732 0.597368 117.82 1.39908 118.621C2.20079 119.423 3.28814 119.874 4.42192 119.874H60.349C79.2656 119.874 96.1891 106.047 98.022 87.1701C99.2884 74.225 93.6428 62.5731 84.441 55.2149ZM34.2557 21.5496H57.7038C61.1052 21.5496 64.3673 22.9008 66.7724 25.3059C69.1775 27.7111 70.5287 30.9731 70.5287 34.3745C70.5287 37.7758 69.1775 41.0379 66.7724 43.443C64.3673 45.8481 61.1052 47.1993 57.7038 47.1993H34.2557V21.5496ZM57.7038 98.4987H34.2557V68.5741H57.7038C61.6721 68.5741 65.4778 70.1505 68.2838 72.9565C71.0898 75.7624 72.6662 79.5682 72.6662 83.5364C72.6662 87.5047 71.0898 91.3104 68.2838 94.1164C65.4778 96.9224 61.6721 98.4987 57.7038 98.4987Z"/>
</svg>
