<svg width="17" height="17" viewBox="0 0 17 17" xmlns="http://www.w3.org/2000/svg">
    <path d="M5.75259 9.63442H4.30659C4.068 9.63442 3.8728 9.46424 3.8728 9.25624V7.99562C3.8728 7.78762 4.068 7.61744 4.30659 7.61744H5.75259C5.99118 7.61744 6.18639 7.78762 6.18639 7.99562V9.25624C6.18639 9.46424 5.99118 9.63442 5.75259 9.63442ZM9.65678 9.25624V7.99562C9.65678 7.78762 9.46157 7.61744 9.22298 7.61744H7.77698C7.53839 7.61744 7.34319 7.78762 7.34319 7.99562V9.25624C7.34319 9.46424 7.53839 9.63442 7.77698 9.63442H9.22298C9.46157 9.63442 9.65678 9.46424 9.65678 9.25624ZM13.1272 9.25624V7.99562C13.1272 7.78762 12.932 7.61744 12.6934 7.61744H11.2474C11.0088 7.61744 10.8136 7.78762 10.8136 7.99562V9.25624C10.8136 9.46424 11.0088 9.63442 11.2474 9.63442H12.6934C12.932 9.63442 13.1272 9.46424 13.1272 9.25624ZM9.65678 12.2817V11.0211C9.65678 10.8131 9.46157 10.6429 9.22298 10.6429H7.77698C7.53839 10.6429 7.34319 10.8131 7.34319 11.0211V12.2817C7.34319 12.4897 7.53839 12.6599 7.77698 12.6599H9.22298C9.46157 12.6599 9.65678 12.4897 9.65678 12.2817ZM6.18639 12.2817V11.0211C6.18639 10.8131 5.99118 10.6429 5.75259 10.6429H4.30659C4.068 10.6429 3.8728 10.8131 3.8728 11.0211V12.2817C3.8728 12.4897 4.068 12.6599 4.30659 12.6599H5.75259C5.99118 12.6599 6.18639 12.4897 6.18639 12.2817ZM13.1272 12.2817V11.0211C13.1272 10.8131 12.932 10.6429 12.6934 10.6429H11.2474C11.0088 10.6429 10.8136 10.8131 10.8136 11.0211V12.2817C10.8136 12.4897 11.0088 12.6599 11.2474 12.6599H12.6934C12.932 12.6599 13.1272 12.4897 13.1272 12.2817ZM16.5976 4.08773V15.1811C16.5976 16.0163 15.8203 16.6938 14.8624 16.6938H2.1376C1.17963 16.6938 0.402405 16.0163 0.402405 15.1811V4.08773C0.402405 3.25257 1.17963 2.57499 2.1376 2.57499H3.8728V0.936197C3.8728 0.728197 4.068 0.558014 4.30659 0.558014H5.75259C5.99118 0.558014 6.18639 0.728197 6.18639 0.936197V2.57499H10.8136V0.936197C10.8136 0.728197 11.0088 0.558014 11.2474 0.558014H12.6934C12.932 0.558014 13.1272 0.728197 13.1272 0.936197V2.57499H14.8624C15.8203 2.57499 16.5976 3.25257 16.5976 4.08773ZM14.8624 14.992V5.60046H2.1376V14.992C2.1376 15.096 2.2352 15.1811 2.3545 15.1811H14.6455C14.7648 15.1811 14.8624 15.096 14.8624 14.992Z"/>
</svg>
