<svg width="10" height="10" viewBox="0 0 10 10" xmlns="http://www.w3.org/2000/svg">
    <path d="M6.29581 4.99998L8.77754 2.51825C9.08208 2.21371 9.08208 1.71994 8.77754 1.41515L8.22599 0.8636C7.92145 0.559057 7.42768 0.559057 7.12289 0.8636L4.64116 3.34533L2.15943 0.8636C1.85488 0.559057 1.36112 0.559057 1.05633 0.8636L0.504775 1.41515C0.200231 1.71969 0.200231 2.21346 0.504775 2.51825L2.98651 4.99998L0.504775 7.48171C0.200231 7.78626 0.200231 8.28002 0.504775 8.58482L1.05633 9.13637C1.36087 9.44091 1.85488 9.44091 2.15943 9.13637L4.64116 6.65464L7.12289 9.13637C7.42743 9.44091 7.92145 9.44091 8.22599 9.13637L8.77754 8.58482C9.08208 8.28027 9.08208 7.78651 8.77754 7.48171L6.29581 4.99998Z"/>
</svg>
