<svg width="14" height="12" viewBox="0 0 14 12" fill="none" xmlns="http://www.w3.org/2000/svg">
    <path d="M9.83715 8.05487L10.5765 7.31552C10.692 7.2 10.893 7.28087 10.893 7.44722V10.8066C10.893 11.4189 10.3963 11.9156 9.78401 11.9156H1.65125C1.03898 11.9156 0.542236 11.4189 0.542236 10.8066V2.67384C0.542236 2.06157 1.03898 1.56483 1.65125 1.56483H7.97031C8.13436 1.56483 8.21753 1.76353 8.10201 1.88136L7.36267 2.6207C7.32801 2.65536 7.2818 2.67384 7.23097 2.67384H1.65125V10.8066H9.78401V8.18425C9.78401 8.13573 9.8025 8.08952 9.83715 8.05487ZM13.4553 3.39239L7.38808 9.45962L5.29944 9.69066C4.6941 9.75766 4.17888 9.24706 4.24588 8.6371L4.47692 6.54846L10.5441 0.48123C11.0732 -0.0478613 11.9281 -0.0478613 12.4549 0.48123L13.453 1.47934C13.9821 2.00843 13.9821 2.86561 13.4553 3.39239ZM11.1726 4.10632L9.83022 2.76395L5.53742 7.05907L5.36875 8.56779L6.87747 8.39912L11.1726 4.10632ZM12.6698 2.26489L11.6716 1.26678C11.5769 1.17205 11.4221 1.17205 11.3297 1.26678L10.6158 1.98071L11.9581 3.32308L12.6721 2.60915C12.7645 2.51211 12.7645 2.35962 12.6698 2.26489Z"/>
</svg>
