<svg width="19" height="19" viewBox="0 0 19 19" xmlns="http://www.w3.org/2000/svg">
    <path d="M18.2286 2.39011L16.0715 0.509584C15.6973 0.183305 15.1897 2.41282e-06 14.6604 0L7.50434 0C6.40215 0 5.50867 0.778929 5.50867 1.73981V3.47963H2.18256C1.08037 3.47963 0.18689 4.25856 0.18689 5.21944V16.8182C0.18689 17.7791 1.08037 18.558 2.18256 18.558H11.4957C12.5979 18.558 13.4913 17.7791 13.4913 16.8182V15.0784H16.8175C17.9197 15.0784 18.8131 14.2995 18.8131 13.3386V3.62034C18.8131 3.15891 18.6029 2.71638 18.2286 2.39011ZM11.2462 16.8182H2.43202C2.36586 16.8182 2.30241 16.7953 2.25562 16.7545C2.20884 16.7137 2.18256 16.6584 2.18256 16.6007V5.43692C2.18256 5.37924 2.20884 5.32392 2.25562 5.28314C2.30241 5.24235 2.36586 5.21944 2.43202 5.21944H5.50867V13.3386C5.50867 14.2995 6.40215 15.0784 7.50434 15.0784H11.4957V16.6007C11.4957 16.6584 11.4694 16.7137 11.4226 16.7545C11.3758 16.7953 11.3124 16.8182 11.2462 16.8182ZM16.568 13.3386H7.7538C7.68764 13.3386 7.62419 13.3157 7.57741 13.2749C7.53062 13.2341 7.50434 13.1788 7.50434 13.1211V1.95729C7.50434 1.89961 7.53062 1.8443 7.57741 1.80351C7.62419 1.76273 7.68764 1.73981 7.7538 1.73981H12.1609V4.92947C12.1609 5.40991 12.6076 5.79938 13.1587 5.79938H16.8175V13.1211C16.8175 13.1788 16.7912 13.2341 16.7444 13.2749C16.6976 13.3157 16.6342 13.3386 16.568 13.3386ZM16.8175 4.05957H14.1566V1.73981H14.557C14.6232 1.73981 14.6866 1.76272 14.7334 1.8035L16.7444 3.55665C16.7676 3.57685 16.7859 3.60082 16.7985 3.62721C16.811 3.6536 16.8175 3.68188 16.8175 3.71044V4.05957Z"/>
</svg>
