<svg width="99" height="120" viewBox="0 0 99 138" xmlns="http://www.w3.org/2000/svg">
    <path d="M98.8093 5.50369V15.3089C98.8093 16.6091 98.2928 17.8561 97.3733 18.7755C96.4539 19.6949 95.2069 20.2114 93.9067 20.2114H74.6763L50.1634 118.263H64.4912C65.7914 118.263 67.0384 118.78 67.9578 119.699C68.8772 120.619 69.3938 121.865 69.3938 123.166V132.971C69.3938 134.271 68.8772 135.518 67.9578 136.438C67.0384 137.357 65.7914 137.873 64.4912 137.873H5.66015C4.35991 137.873 3.11292 137.357 2.1935 136.438C1.27409 135.518 0.757568 134.271 0.757568 132.971V123.166C0.757568 121.865 1.27409 120.619 2.1935 119.699C3.11292 118.78 4.35991 118.263 5.66015 118.263H24.8905L49.4035 20.2114H35.0757C33.7754 20.2114 32.5284 19.6949 31.609 18.7755C30.6896 17.8561 30.1731 16.6091 30.1731 15.3089V5.50369C30.1731 4.20344 30.6896 2.95645 31.609 2.03704C32.5284 1.11763 33.7754 0.601105 35.0757 0.601105H93.9067C95.2069 0.601105 96.4539 1.11763 97.3733 2.03704C98.2928 2.95645 98.8093 4.20344 98.8093 5.50369Z"/>
</svg>
