<svg width="103" height="117" viewBox="0 0 103 117" xmlns="http://www.w3.org/2000/svg">
    <path d="M65.4451 42.7891C77.373 56.3384 77.2093 78.0612 65.517 91.4027C65.495 91.4298 65.4691 91.4593 65.4451 91.4865L52.0294 106.71C40.1967 120.137 20.9457 120.135 9.11484 106.71C-2.7178 93.2852 -2.7178 71.4376 9.11484 58.0127L16.5227 49.6067C18.4871 47.3775 21.8702 48.8591 21.9716 52.0094C22.101 56.0241 22.7354 60.0577 23.9061 63.9529C24.3026 65.2718 24.0193 66.7307 23.1509 67.7162L20.5382 70.6809C14.9431 77.03 14.7676 87.368 20.3076 93.7791C25.9023 100.253 35.0981 100.292 40.7357 93.8946L54.1515 78.6733C59.7796 72.2869 59.756 61.9643 54.1515 55.6046C53.4127 54.7677 52.6684 54.1176 52.0871 53.6634C51.6758 53.3429 51.3362 52.9178 51.0954 52.4219C50.8546 51.9261 50.7193 51.3733 50.7002 50.8076C50.6211 48.4137 51.3686 45.9469 53.0355 44.0553L57.2388 39.2854C58.341 38.0347 60.07 37.8811 61.3481 38.8933C62.8118 40.0531 64.1828 41.3567 65.4451 42.7891ZM93.5813 10.8599C81.7505 -2.56536 62.4995 -2.56717 50.6668 10.8599L37.251 26.0835C37.2271 26.1107 37.2011 26.1402 37.1792 26.1673C25.4871 39.5088 25.3232 61.2316 37.251 74.7809C38.5133 76.2132 39.8842 77.5168 41.3478 78.6765C42.6259 79.6887 44.3552 79.5348 45.4572 78.2843L49.6604 73.5145C51.3274 71.6229 52.0749 69.1561 51.9958 66.7622C51.9767 66.1965 51.8414 65.6437 51.6006 65.1478C51.3598 64.652 51.0202 64.2269 50.6089 63.9064C50.0276 63.4522 49.2833 62.802 48.5445 61.9652C42.94 55.6055 42.9164 45.2829 48.5445 38.8965L61.9602 23.6752C67.5979 17.2779 76.7934 17.3164 82.3883 23.7907C87.9283 30.2018 87.7531 40.5398 82.1578 46.8889L79.5451 49.8536C78.6767 50.8391 78.3934 52.298 78.7898 53.6169C79.9605 57.5121 80.595 61.5456 80.7244 65.5604C80.826 68.7107 84.2089 70.1923 86.1733 67.9631L93.5811 59.557C105.414 46.1324 105.414 24.2848 93.5813 10.8599Z"/>
</svg>
