<svg width="19" height="14" viewBox="0 0 19 14" xmlns="http://www.w3.org/2000/svg">
<path d="M5.44247 0.743011C5.4036 0.70901 5.35742 0.682033 5.30657 0.663625C5.25572 0.645218 5.2012 0.635742 5.14614 0.635742C5.09108 0.635742 5.03656 0.645218 4.98571 0.663625C4.93486 0.682033 4.88868 0.70901 4.84982 0.743011L2.62982 2.66715L1.83846 1.99487C1.7996 1.96087 1.75341 1.93389 1.70256 1.91548C1.65171 1.89708 1.5972 1.8876 1.54214 1.8876C1.48708 1.8876 1.43256 1.89708 1.38171 1.91548C1.33086 1.93389 1.28468 1.96087 1.24581 1.99487L0.698483 2.47263C0.659482 2.50652 0.628537 2.54678 0.607423 2.59111C0.586308 2.63544 0.575439 2.68297 0.575439 2.73097C0.575439 2.77897 0.586308 2.8265 0.607423 2.87083C0.628537 2.91516 0.659482 2.95542 0.698483 2.9893L2.35755 4.4299C2.44036 4.49852 2.55025 4.53679 2.66451 4.53679C2.77877 4.53679 2.88866 4.49852 2.97147 4.4299L3.51496 3.95517L6.03198 1.76115C6.1104 1.69273 6.15471 1.60011 6.1553 1.50338C6.15589 1.40665 6.1127 1.31363 6.03511 1.24448L5.44247 0.743011ZM5.44247 5.58116C5.4036 5.54716 5.35742 5.52018 5.30657 5.50177C5.25572 5.48336 5.2012 5.47389 5.14614 5.47389C5.09108 5.47389 5.03656 5.48336 4.98571 5.50177C4.93486 5.52018 4.88868 5.54716 4.84982 5.58116L2.62982 7.51775L1.83846 6.84608C1.7996 6.81208 1.75341 6.7851 1.70256 6.7667C1.65171 6.74829 1.5972 6.73881 1.54214 6.73881C1.48708 6.73881 1.43256 6.74829 1.38171 6.7667C1.33086 6.7851 1.28468 6.81208 1.24581 6.84608L0.698483 7.32294C0.659482 7.35682 0.628537 7.39708 0.607423 7.44141C0.586308 7.48574 0.575439 7.53327 0.575439 7.58127C0.575439 7.62927 0.586308 7.6768 0.607423 7.72113C0.628537 7.76546 0.659482 7.80572 0.698483 7.83961L2.35337 9.28324C2.43612 9.35184 2.54595 9.3901 2.66015 9.3901C2.77435 9.3901 2.88418 9.35184 2.96693 9.28324L3.51426 8.80638L6.03128 6.61145C6.1094 6.54351 6.15357 6.4514 6.15416 6.3552C6.15474 6.259 6.11171 6.16649 6.03442 6.09782L5.44247 5.58116ZM2.80657 10.8484C1.88308 10.8484 1.11264 11.5019 1.11264 12.3073C1.11264 13.1127 1.88378 13.7661 2.80657 13.7661C3.25037 13.7661 3.676 13.6124 3.98982 13.3388C4.30363 13.0652 4.47993 12.6942 4.47993 12.3073C4.47993 11.9204 4.30363 11.5493 3.98982 11.2757C3.676 11.0021 3.25037 10.8484 2.80657 10.8484ZM17.8668 11.3347H7.82666C7.67872 11.3347 7.53685 11.3859 7.43224 11.4771C7.32764 11.5683 7.26887 11.692 7.26887 11.821V12.7935C7.26887 12.9225 7.32764 13.0462 7.43224 13.1374C7.53685 13.2286 7.67872 13.2798 7.82666 13.2798H17.8668C18.0148 13.2798 18.1566 13.2286 18.2612 13.1374C18.3659 13.0462 18.4246 12.9225 18.4246 12.7935V11.821C18.4246 11.692 18.3659 11.5683 18.2612 11.4771C18.1566 11.3859 18.0148 11.3347 17.8668 11.3347ZM17.8668 1.60919H7.82666C7.67872 1.60919 7.53685 1.66042 7.43224 1.75162C7.32764 1.84281 7.26887 1.9665 7.26887 2.09547V3.06802C7.26887 3.19699 7.32764 3.32067 7.43224 3.41187C7.53685 3.50306 7.67872 3.5543 7.82666 3.5543H17.8668C18.0148 3.5543 18.1566 3.50306 18.2612 3.41187C18.3659 3.32067 18.4246 3.19699 18.4246 3.06802V2.09547C18.4246 1.9665 18.3659 1.84281 18.2612 1.75162C18.1566 1.66042 18.0148 1.60919 17.8668 1.60919ZM17.8668 6.47195H7.82666C7.67872 6.47195 7.53685 6.52319 7.43224 6.61438C7.32764 6.70557 7.26887 6.82926 7.26887 6.95823V7.93078C7.26887 8.05975 7.32764 8.18344 7.43224 8.27463C7.53685 8.36583 7.67872 8.41706 7.82666 8.41706H17.8668C18.0148 8.41706 18.1566 8.36583 18.2612 8.27463C18.3659 8.18344 18.4246 8.05975 18.4246 7.93078V6.95823C18.4246 6.82926 18.3659 6.70557 18.2612 6.61438C18.1566 6.52319 18.0148 6.47195 17.8668 6.47195Z"/>
</svg>
