<svg width="19" height="14" viewBox="0 0 19 14" xmlns="http://www.w3.org/2000/svg">
<path d="M11.3556 8.78253H7.64436C7.13203 8.78253 6.71654 9.14476 6.71654 9.5914V12.8269C6.71654 13.2735 7.13203 13.6357 7.64436 13.6357H11.3556C11.868 13.6357 12.2835 13.2735 12.2835 12.8269V9.5914C12.2835 9.14476 11.868 8.78253 11.3556 8.78253ZM5.78872 1.50272C5.78872 1.05607 5.37323 0.693848 4.8609 0.693848H1.14962C0.637291 0.693848 0.221802 1.05607 0.221802 1.50272V4.73819C0.221802 5.18484 0.637291 5.54706 1.14962 5.54706H3.92496L6.04619 8.78354C6.36803 8.30176 6.96009 7.97366 7.64436 7.97366H7.65248L5.78872 5.13024V3.92932H12.2835V2.31158H5.78872V1.50272ZM17.8504 0.693848H14.1391C13.6268 0.693848 13.2113 1.05607 13.2113 1.50272V4.73819C13.2113 5.18484 13.6268 5.54706 14.1391 5.54706H17.8504C18.3627 5.54706 18.7782 5.18484 18.7782 4.73819V1.50272C18.7782 1.05607 18.3627 0.693848 17.8504 0.693848Z"/>
</svg>
