<svg width="17" height="16" viewBox="0 0 17 16" xmlns="http://www.w3.org/2000/svg">
<path d="M16.1928 13.9506L13.1128 11.0285C12.9738 10.8966 12.7854 10.8234 12.5876 10.8234H12.0841C12.9367 9.78879 13.4434 8.4875 13.4434 7.07191C13.4434 3.70437 10.5673 0.975765 7.0177 0.975765C3.46814 0.975765 0.592041 3.70437 0.592041 7.07191C0.592041 10.4394 3.46814 13.168 7.0177 13.168C8.50982 13.168 9.88145 12.6874 10.972 11.8785V12.3562C10.972 12.5438 11.0492 12.7226 11.1882 12.8544L14.2682 15.7765C14.5586 16.052 15.0282 16.052 15.3155 15.7765L16.1897 14.9471C16.4801 14.6716 16.4801 14.2261 16.1928 13.9506ZM7.0177 10.8234C4.8336 10.8234 3.06345 9.14694 3.06345 7.07191C3.06345 4.9998 4.83051 3.32043 7.0177 3.32043C9.20181 3.32043 10.972 4.99687 10.972 7.07191C10.972 9.14401 9.2049 10.8234 7.0177 10.8234Z"/>
</svg>
