<svg width="17" height="16" viewBox="0 0 17 16" xmlns="http://www.w3.org/2000/svg">
<path d="M15.8828 10.296L14.5233 9.55121C14.6605 8.84881 14.6605 8.12825 14.5233 7.42585L15.8828 6.68106C16.0391 6.59629 16.1094 6.42069 16.0583 6.2572C15.7041 5.17938 15.1009 4.2045 14.3127 3.3931C14.1914 3.26897 13.9936 3.2387 13.8404 3.32347L12.4809 4.06825C11.9097 3.60201 11.2523 3.24172 10.5406 3.00557V1.51903C10.5406 1.34948 10.4162 1.20113 10.2407 1.1648C9.06948 0.916538 7.86957 0.928648 6.75583 1.1648C6.58031 1.20113 6.45585 1.34948 6.45585 1.51903V3.0086C5.7474 3.24778 5.09 3.60806 4.51558 4.07128L3.1593 3.3265C3.00293 3.24172 2.80827 3.26897 2.687 3.39613C1.89876 4.2045 1.29562 5.17938 0.941392 6.26023C0.887141 6.42372 0.96054 6.59932 1.11691 6.68409L2.47638 7.42888C2.33915 8.13128 2.33915 8.85184 2.47638 9.55424L1.11691 10.299C0.96054 10.3838 0.890332 10.5594 0.941392 10.7229C1.29562 11.8007 1.89876 12.7756 2.687 13.587C2.80827 13.7111 3.00612 13.7414 3.1593 13.6566L4.51877 12.9118C5.09 13.3781 5.7474 13.7384 6.45905 13.9745V15.4641C6.45905 15.6336 6.5835 15.782 6.75902 15.8183C7.93021 16.0666 9.13011 16.0545 10.2439 15.8183C10.4194 15.782 10.5438 15.6336 10.5438 15.4641V13.9745C11.2523 13.7353 11.9097 13.3751 12.4841 12.9118L13.8436 13.6566C13.9999 13.7414 14.1946 13.7141 14.3159 13.587C15.1041 12.7786 15.7073 11.8037 16.0615 10.7229C16.1094 10.5564 16.0391 10.3808 15.8828 10.296ZM8.49825 10.9106C7.09091 10.9106 5.94526 9.8237 5.94526 8.48853C5.94526 7.15337 7.09091 6.06646 8.49825 6.06646C9.90558 6.06646 11.0512 7.15337 11.0512 8.48853C11.0512 9.8237 9.90558 10.9106 8.49825 10.9106Z"/>
</svg>
