<svg width="99" height="118" viewBox="0 0 99 118" xmlns="http://www.w3.org/2000/svg">
    <path d="M95.6087 50.6046H56.9051L40.2114 43.6047C38.3031 42.8039 36.669 41.0969 35.6062 38.7939C34.5433 36.491 34.1223 33.745 34.4195 31.055C34.7167 28.365 35.7125 25.9095 37.2258 24.1349C38.7392 22.3602 40.6697 21.3842 42.6665 21.3841H55.4573C57.2329 21.3823 58.9737 22.0547 60.4844 23.3257C61.9951 24.5967 63.216 26.416 64.01 28.5796C64.3736 29.5692 65.0108 30.3216 65.7814 30.6714C66.5521 31.0212 67.3931 30.9398 68.1197 30.4451L76.3431 24.8436C77.0698 24.3487 77.6224 23.4809 77.8796 22.4309C78.1367 21.381 78.0772 20.2349 77.7143 19.2447L77.6128 18.9838C75.5776 13.4333 72.4476 8.76497 68.5738 5.50232C64.7 2.23967 60.2356 0.511734 55.6813 0.512299H42.6588C39.3569 0.515949 36.092 1.46011 33.0737 3.28419C30.0553 5.10826 27.3503 7.77194 25.1322 11.1043C22.9142 14.4366 21.232 18.3639 20.1938 22.6341C19.1555 26.9043 18.7842 31.4231 19.1035 35.9004C19.4865 41.3506 21.0377 46.292 23.2745 50.6046H3.68521C2.87256 50.6046 2.09319 51.0444 1.51855 51.8272C0.943919 52.6101 0.621094 53.6719 0.621094 54.779L0.621094 63.1277C0.621094 64.2348 0.943919 65.2966 1.51855 66.0794C2.09319 66.8622 2.87256 67.302 3.68521 67.302H95.6087C96.4213 67.302 97.2007 66.8622 97.7753 66.0794C98.35 65.2966 98.6728 64.2348 98.6728 63.1277V54.779C98.6728 53.6719 98.35 52.6101 97.7753 51.8272C97.2007 51.0444 96.4213 50.6046 95.6087 50.6046ZM61.0914 75.6508C62.2765 76.6579 63.254 78.0592 63.9321 79.7228C64.6101 81.3864 64.9665 83.2576 64.9675 85.1605C64.9655 88.173 64.0862 91.0614 62.5225 93.1916C60.9589 95.3218 58.8387 96.5198 56.6274 96.5226H43.8366C42.061 96.5243 40.3202 95.852 38.8095 94.581C37.2988 93.31 36.0779 91.4906 35.2839 89.327C34.9203 88.3374 34.2831 87.5851 33.5125 87.2353C32.7418 86.8855 31.9008 86.9669 31.1742 87.4616L22.9508 93.063C22.2241 93.558 21.6715 94.4258 21.4143 95.4757C21.1572 96.5256 21.2167 97.6717 21.5796 98.6619L21.6811 98.9228C23.7163 104.473 26.8463 109.142 30.7201 112.404C34.5939 115.667 39.0583 117.395 43.6126 117.394H56.635C59.937 117.391 63.2019 116.447 66.2202 114.622C69.2386 112.798 71.9436 110.135 74.1617 106.802C76.3797 103.47 78.0619 99.5428 79.1001 95.2725C80.1384 91.0023 80.5097 86.4835 80.1904 82.0062C80.0208 79.8432 79.6779 77.7121 79.1678 75.6508H61.0914Z"/>
</svg>
