<svg width="99" height="120" viewBox="0 0 99 113" xmlns="http://www.w3.org/2000/svg">
    <path d="M7.17655 14.3426H14.1802V49.3611C14.1802 68.6694 29.8904 84.3796 49.1987 84.3796C68.507 84.3796 84.2172 68.6694 84.2172 49.3611V14.3426H91.2209C92.1496 14.3426 93.0403 13.9737 93.6971 13.317C94.3538 12.6602 94.7227 11.7695 94.7227 10.8408V3.83708C94.7227 2.90833 94.3538 2.01763 93.6971 1.3609C93.0403 0.704179 92.1496 0.335236 91.2209 0.335236L59.7042 0.335236C58.7755 0.335236 57.8848 0.704179 57.2281 1.3609C56.5713 2.01763 56.2024 2.90833 56.2024 3.83708V10.8408C56.2024 11.7695 56.5713 12.6602 57.2281 13.317C57.8848 13.9737 58.7755 14.3426 59.7042 14.3426H66.7079V49.3611C66.7079 54.0048 64.8632 58.4584 61.5796 61.742C58.296 65.0256 53.8424 66.8703 49.1987 66.8703C44.555 66.8703 40.1014 65.0256 36.8178 61.742C33.5342 58.4584 31.6895 54.0048 31.6895 49.3611V14.3426H38.6932C39.6219 14.3426 40.5126 13.9737 41.1693 13.317C41.8261 12.6602 42.195 11.7695 42.195 10.8408V3.83708C42.195 2.90833 41.8261 2.01763 41.1693 1.3609C40.5126 0.704179 39.6219 0.335236 38.6932 0.335236L7.17655 0.335236C6.2478 0.335236 5.35709 0.704179 4.70037 1.3609C4.04364 2.01763 3.6747 2.90833 3.6747 3.83708V10.8408C3.6747 11.7695 4.04364 12.6602 4.70037 13.317C5.35709 13.9737 6.2478 14.3426 7.17655 14.3426ZM94.7227 98.3869H3.6747C2.74595 98.3869 1.85524 98.7559 1.19852 99.4126C0.541795 100.069 0.172852 100.96 0.172852 101.889L0.172852 108.892C0.172852 109.821 0.541795 110.712 1.19852 111.369C1.85524 112.025 2.74595 112.394 3.6747 112.394H94.7227C95.6515 112.394 96.5422 112.025 97.1989 111.369C97.8556 110.712 98.2246 109.821 98.2246 108.892V101.889C98.2246 100.96 97.8556 100.069 97.1989 99.4126C96.5422 98.7559 95.6515 98.3869 94.7227 98.3869Z"/>
</svg>
