<svg width="13" height="12" viewBox="0 0 13 12" xmlns="http://www.w3.org/2000/svg">
    <path d="M7.52619 1.12141L6.95345 0.548675C6.71095 0.306167 6.3188 0.306167 6.07888 0.548675L1.0636 5.56138C0.821087 5.80388 0.821087 6.19603 1.0636 6.43595L6.07888 11.4512C6.32138 11.6937 6.71353 11.6937 6.95345 11.4512L7.52619 10.8785C7.77128 10.6334 7.76612 10.2335 7.51587 9.99361L4.40712 7.03191H11.8217C12.1648 7.03191 12.4409 6.75586 12.4409 6.41274V5.58717C12.4409 5.24405 12.1648 4.968 11.8217 4.968H4.40712L7.51587 2.00631C7.7687 1.76638 7.77386 1.3665 7.52619 1.12141Z"/>
</svg>
